HIERARCHY
ROOT Hips
{
	OFFSET -0.001795 -0.223333 0.028219
	CHANNELS 6 Xposition Yposition Zposition Zrotation Yrotation Xrotation 
	JOINT LeftUpLeg
	{
		OFFSET 0.069520 -0.091406 -0.006815
		CHANNELS 3 Zrotation Yrotation Xrotation
		JOINT LeftLeg
		{
			OFFSET 0.034277 -0.375199 -0.004496
			CHANNELS 3 Zrotation Yrotation Xrotation
			JOINT LeftFoot
			{
				OFFSET -0.013596 -0.397961 -0.043693
				CHANNELS 3 Zrotation Yrotation Xrotation
				JOINT LeftToe
				{
					OFFSET 0.026358 -0.055791 0.119288
					CHANNELS 3 Zrotation Yrotation Xrotation
					End Site
					{
						OFFSET 0.000000 0.000000 0.000000
					}
				}
			}
		}
	}
	JOINT RightUpLeg
	{
		OFFSET -0.067670 -0.090522 -0.004320
		CHANNELS 3 Zrotation Yrotation Xrotation
		JOINT RightLeg
		{
			OFFSET -0.038290 -0.382569 -0.008850
			CHANNELS 3 Zrotation Yrotation Xrotation
			JOINT RightFoot
			{
				OFFSET 0.015774 -0.398415 -0.042312
				CHANNELS 3 Zrotation Yrotation Xrotation
				JOINT RightToe
				{
					OFFSET -0.025372 -0.048144 0.123348
					CHANNELS 3 Zrotation Yrotation Xrotation
					End Site
					{
						OFFSET 0.000000 0.000000 0.000000
					}
				}
			}
		}
	}
	JOINT Spine
	{
		OFFSET -0.002533 0.108963 -0.026696
		CHANNELS 3 Zrotation Yrotation Xrotation
		JOINT Spine1
		{
			OFFSET 0.005487 0.135180 0.001092
			CHANNELS 3 Zrotation Yrotation Xrotation
			JOINT Spine2
			{
				OFFSET 0.001457 0.052922 0.025425
				CHANNELS 3 Zrotation Yrotation Xrotation
				JOINT Neck
				{
					OFFSET -0.002778 0.213870 -0.042857
					CHANNELS 3 Zrotation Yrotation Xrotation
					JOINT Head
					{
						OFFSET 0.005152 0.064970 0.051349
						CHANNELS 3 Zrotation Yrotation Xrotation
						End Site
						{
							OFFSET 0.000000 0.000000 0.000000
						}
					}
				}
				JOINT LeftShoulder
				{
					OFFSET 0.078845 0.121749 -0.034090
					CHANNELS 3 Zrotation Yrotation Xrotation
					JOINT LeftArm
					{
						OFFSET 0.090977 0.030469 -0.008868
						CHANNELS 3 Zrotation Yrotation Xrotation
						JOINT LeftForeArm
						{
							OFFSET 0.259612 -0.012772 -0.027456
							CHANNELS 3 Zrotation Yrotation Xrotation
							JOINT LeftHand
							{
								OFFSET 0.249234 0.008986 -0.001171
								CHANNELS 3 Zrotation Yrotation Xrotation
								End Site
								{
									OFFSET 0.000000 0.000000 0.000000
								}
							}
						}
					}
				}
				JOINT RightShoulder
				{
					OFFSET -0.081759 0.118833 -0.038615
					CHANNELS 3 Zrotation Yrotation Xrotation
					JOINT RightArm
					{
						OFFSET -0.096012 0.032551 -0.009143
						CHANNELS 3 Zrotation Yrotation Xrotation
						JOINT RightForeArm
						{
							OFFSET -0.253742 -0.013329 -0.021401
							CHANNELS 3 Zrotation Yrotation Xrotation
							JOINT RightHand
							{
								OFFSET -0.255298 0.007772 -0.005559
								CHANNELS 3 Zrotation Yrotation Xrotation
								End Site
								{
									OFFSET 0.000000 0.000000 0.000000
								}
							}
						}
					}
				}
			}
		}
	}
}
MOTION
Frames: 5
Frame Time: 0.050000
-0.030138 0.931042 -0.052630 -1.193556 27.532711 16.173175 11.124885 -3.347842 -33.286339 -9.223794 0.119583 21.796181 6.021460 17.443420 13.032220 0.000000 0.000000 0.000000 -3.415934 -0.580229 -33.133910 3.658600 -1.764455 19.309763 -3.324145 -7.792794 15.573344 0.000000 0.000000 0.000000 3.891812 -5.778492 33.026477 -2.577288 1.525955 -25.200863 -3.845542 8.265880 28.177094 16.784551 -1.826530 -39.677742 0.000000 0.000000 0.000000 -2.686406 -30.850524 9.390504 -9.879514 -39.457984 -2.392571 60.158229 -44.576309 -29.005776 0.000000 0.000000 0.000000 19.259762 8.561957 9.932158 16.546849 42.955866 0.365918 -45.812969 43.457337 -12.952498 0.000000 0.000000 0.000000 
-0.028372 0.934668 -0.047181 -0.895408 27.478790 15.313138 10.282943 -3.095150 -30.742267 -9.549785 0.213744 20.499637 7.097441 18.533350 11.896080 0.000000 0.000000 0.000000 -3.384053 -0.353230 -30.900682 3.206627 -1.501339 17.962081 -3.393428 -7.849211 15.782434 0.000000 0.000000 0.000000 4.261340 -5.110383 29.994333 -2.879892 1.582803 -24.995773 -3.480474 7.261434 28.900188 16.328727 -1.703365 -39.780178 0.000000 0.000000 0.000000 -6.083825 -28.352596 8.453703 -18.333022 -36.784142 -0.089274 56.755491 -52.380110 -31.953515 0.000000 0.000000 0.000000 20.776401 6.627015 9.091807 24.198933 40.045573 1.686487 -40.961312 48.578707 -12.400696 0.000000 0.000000 0.000000 
-0.025853 0.937968 -0.040713 -0.688742 27.346783 14.348744 9.217451 -2.796563 -27.787847 -9.502103 0.250482 18.799925 8.374533 19.855970 10.656949 0.000000 0.000000 0.000000 -3.315109 -0.141646 -28.734600 2.815634 -1.299064 16.970875 -3.397402 -7.823789 15.992622 0.000000 0.000000 0.000000 4.591061 -4.507854 27.210975 -3.110511 1.618007 -25.123655 -2.995813 6.321804 29.792103 14.660449 -1.166776 -38.961041 0.000000 0.000000 0.000000 -9.616128 -24.954874 6.943995 -26.251655 -32.382833 1.283567 50.900032 -60.078420 -32.878801 0.000000 0.000000 0.000000 21.689135 4.363150 7.792062 30.979949 36.552700 2.329055 -32.856011 53.027466 -9.623762 0.000000 0.000000 0.000000 
-0.023039 0.941212 -0.034052 -0.595027 27.199665 13.556930 8.356572 -2.476856 -24.881919 -8.348375 0.140232 16.422834 7.976392 19.031689 10.328746 0.000000 0.000000 0.000000 -3.037358 0.111415 -26.415706 2.260349 -0.996728 15.309218 -3.430967 -7.833797 16.185668 0.000000 0.000000 0.000000 4.894186 -3.795051 23.807830 -3.336760 1.678907 -24.646109 -2.582320 5.627632 30.109627 14.117021 -1.063141 -38.292900 0.000000 0.000000 0.000000 -11.894118 -20.812543 4.908155 -33.638736 -26.824067 1.443121 41.116671 -67.960982 -30.612014 0.000000 0.000000 0.000000 22.976576 1.554638 6.252237 36.725872 31.511509 1.867174 -23.393365 57.444463 -5.252030 0.000000 0.000000 0.000000 
-0.020230 0.943436 -0.027462 -0.766266 26.826982 12.738159 7.894703 -2.165067 -22.359688 -7.433962 0.089635 14.531918 7.829205 18.595703 10.078769 0.000000 0.000000 0.000000 -2.589137 0.348602 -24.745048 1.814951 -0.801682 14.537809 -3.303839 -7.639852 16.339181 0.000000 0.000000 0.000000 5.222981 -3.282636 21.116988 -3.604405 1.691666 -25.198928 -2.238151 5.341255 31.051199 13.058105 -0.634768 -37.975990 0.000000 0.000000 0.000000 -13.199222 -17.468977 3.195182 -38.933933 -20.948496 0.372885 28.924622 -72.414658 -23.776356 0.000000 0.000000 0.000000 23.626923 -0.904600 4.770449 41.273973 26.831977 0.950730 -13.302342 59.062975 0.398710 0.000000 0.000000 0.000000 
